# MagicaVoxel @ Ephtracy

# group
o 

# material
mtllib Coin.mtl
usemtl palette

# normals
vn -1 0 0
vn 1 0 0
vn 0 0 1
vn 0 0 -1
vn 0 -1 0
vn 0 1 0

# texcoords
vt 0.00585938 0.5
vt 0.0214844 0.5
vt 0.0371094 0.5
vt 0.0410156 0.5
vt 0.0449219 0.5
vt 0.0644531 0.5
vt 0.0683594 0.5
vt 0.0917969 0.5
vt 0.208984 0.5
vt 0.373047 0.5
vt 0.396484 0.5

# verts
v -0.5 0.3 0
v -0.5 0.3 -0.1
v -0.5 0.4 0
v -0.5 0.4 -0.1
v -0.5 0.6 0
v -0.5 0.6 -0.1
v -0.5 0.7 0
v -0.5 0.7 -0.1
v -0.4 0.1 0
v -0.4 0.1 -0.1
v -0.4 0.2 0
v -0.4 0.2 -0.1
v -0.4 0.3 0
v -0.4 0.3 -0.1
v -0.4 0.7 0
v -0.4 0.7 -0.1
v -0.4 0.9 0
v -0.4 0.9 -0.1
v -0.2 0 0
v -0.2 0 -0.1
v -0.2 0.1 0
v -0.2 0.1 -0.1
v -0.2 0.9 0
v -0.2 0.9 -0.1
v -0.2 1 0
v -0.2 1 -0.1
v 0.2 0 0
v 0.2 0 -0.1
v 0.2 0.1 0
v 0.2 0.1 -0.1
v 0.2 0.9 0
v 0.2 0.9 -0.1
v 0.2 1 0
v 0.2 1 -0.1
v 0.4 0.1 0
v 0.4 0.1 -0.1
v 0.4 0.3 0
v 0.4 0.3 -0.1
v 0.4 0.7 0
v 0.4 0.7 -0.1
v 0.4 0.8 0
v 0.4 0.8 -0.1
v 0.4 0.9 0
v 0.4 0.9 -0.1
v 0.5 0.3 0
v 0.5 0.3 -0.1
v 0.5 0.5 0
v 0.5 0.5 -0.1
v 0.5 0.6 0
v 0.5 0.6 -0.1
v 0.5 0.7 0
v 0.5 0.7 -0.1
v -0.5 0.3 0
v -0.5 0.4 0
v -0.5 0.6 0
v -0.5 0.7 0
v -0.4 0.1 0
v -0.4 0.2 0
v -0.4 0.3 0
v -0.4 0.4 0
v -0.4 0.5 0
v -0.4 0.6 0
v -0.4 0.7 0
v -0.4 0.9 0
v -0.3 0.1 0
v -0.3 0.2 0
v -0.3 0.3 0
v -0.3 0.4 0
v -0.3 0.5 0
v -0.3 0.6 0
v -0.3 0.7 0
v -0.3 0.8 0
v -0.2 0 0
v -0.2 0.1 0
v -0.2 0.2 0
v -0.2 0.3 0
v -0.2 0.4 0
v -0.2 0.5 0
v -0.2 0.6 0
v -0.2 0.7 0
v -0.2 0.8 0
v -0.2 0.9 0
v -0.2 1 0
v -0.1 0 0
v -0.1 0.1 0
v -0.1 0.2 0
v -0.1 0.3 0
v -0.1 0.7 0
v -0.1 0.8 0
v -0.1 0.9 0
v 0 0 0
v 0 0.1 0
v 0 0.4 0
v 0 0.5 0
v 0 0.8 0
v 0 0.9 0
v 0 1 0
v 0.1 0.1 0
v 0.1 0.2 0
v 0.1 0.3 0
v 0.1 0.4 0
v 0.1 0.5 0
v 0.1 0.6 0
v 0.1 0.7 0
v 0.1 0.8 0
v 0.1 0.9 0
v 0.2 0 0
v 0.2 0.1 0
v 0.2 0.2 0
v 0.2 0.3 0
v 0.2 0.4 0
v 0.2 0.5 0
v 0.2 0.6 0
v 0.2 0.7 0
v 0.2 0.8 0
v 0.2 0.9 0
v 0.2 1 0
v 0.3 0.2 0
v 0.3 0.3 0
v 0.3 0.4 0
v 0.3 0.5 0
v 0.3 0.6 0
v 0.3 0.7 0
v 0.3 0.8 0
v 0.4 0.1 0
v 0.4 0.3 0
v 0.4 0.4 0
v 0.4 0.5 0
v 0.4 0.6 0
v 0.4 0.7 0
v 0.4 0.8 0
v 0.4 0.9 0
v 0.5 0.3 0
v 0.5 0.5 0
v 0.5 0.6 0
v 0.5 0.7 0
v -0.5 0.3 -0.1
v -0.5 0.4 -0.1
v -0.5 0.6 -0.1
v -0.5 0.7 -0.1
v -0.4 0.1 -0.1
v -0.4 0.2 -0.1
v -0.4 0.3 -0.1
v -0.4 0.4 -0.1
v -0.4 0.5 -0.1
v -0.4 0.6 -0.1
v -0.4 0.7 -0.1
v -0.4 0.9 -0.1
v -0.3 0.1 -0.1
v -0.3 0.2 -0.1
v -0.3 0.3 -0.1
v -0.3 0.4 -0.1
v -0.3 0.5 -0.1
v -0.3 0.6 -0.1
v -0.3 0.7 -0.1
v -0.3 0.8 -0.1
v -0.2 0 -0.1
v -0.2 0.1 -0.1
v -0.2 0.2 -0.1
v -0.2 0.3 -0.1
v -0.2 0.4 -0.1
v -0.2 0.5 -0.1
v -0.2 0.6 -0.1
v -0.2 0.7 -0.1
v -0.2 0.8 -0.1
v -0.2 0.9 -0.1
v -0.2 1 -0.1
v -0.1 0 -0.1
v -0.1 0.1 -0.1
v -0.1 0.2 -0.1
v -0.1 0.3 -0.1
v -0.1 0.7 -0.1
v -0.1 0.8 -0.1
v -0.1 0.9 -0.1
v 0 0 -0.1
v 0 0.1 -0.1
v 0 0.4 -0.1
v 0 0.5 -0.1
v 0 0.8 -0.1
v 0 0.9 -0.1
v 0 1 -0.1
v 0.1 0.1 -0.1
v 0.1 0.2 -0.1
v 0.1 0.3 -0.1
v 0.1 0.4 -0.1
v 0.1 0.5 -0.1
v 0.1 0.6 -0.1
v 0.1 0.7 -0.1
v 0.1 0.8 -0.1
v 0.1 0.9 -0.1
v 0.2 0 -0.1
v 0.2 0.1 -0.1
v 0.2 0.2 -0.1
v 0.2 0.3 -0.1
v 0.2 0.4 -0.1
v 0.2 0.5 -0.1
v 0.2 0.6 -0.1
v 0.2 0.7 -0.1
v 0.2 0.8 -0.1
v 0.2 0.9 -0.1
v 0.2 1 -0.1
v 0.3 0.2 -0.1
v 0.3 0.3 -0.1
v 0.3 0.4 -0.1
v 0.3 0.5 -0.1
v 0.3 0.6 -0.1
v 0.3 0.7 -0.1
v 0.3 0.8 -0.1
v 0.4 0.1 -0.1
v 0.4 0.3 -0.1
v 0.4 0.4 -0.1
v 0.4 0.5 -0.1
v 0.4 0.6 -0.1
v 0.4 0.7 -0.1
v 0.4 0.8 -0.1
v 0.4 0.9 -0.1
v 0.5 0.3 -0.1
v 0.5 0.5 -0.1
v 0.5 0.6 -0.1
v 0.5 0.7 -0.1
v -0.2 0 0
v -0.1 0 0
v 0 0 0
v 0.2 0 0
v -0.2 0 -0.1
v -0.1 0 -0.1
v 0 0 -0.1
v 0.2 0 -0.1
v -0.4 0.1 0
v -0.3 0.1 0
v -0.2 0.1 0
v 0.2 0.1 0
v 0.4 0.1 0
v -0.4 0.1 -0.1
v -0.3 0.1 -0.1
v -0.2 0.1 -0.1
v 0.2 0.1 -0.1
v 0.4 0.1 -0.1
v -0.5 0.3 0
v -0.4 0.3 0
v 0.4 0.3 0
v 0.5 0.3 0
v -0.5 0.3 -0.1
v -0.4 0.3 -0.1
v 0.4 0.3 -0.1
v 0.5 0.3 -0.1
v -0.5 0.7 0
v -0.4 0.7 0
v 0.4 0.7 0
v 0.5 0.7 0
v -0.5 0.7 -0.1
v -0.4 0.7 -0.1
v 0.4 0.7 -0.1
v 0.5 0.7 -0.1
v -0.4 0.9 0
v -0.2 0.9 0
v 0.2 0.9 0
v 0.4 0.9 0
v -0.4 0.9 -0.1
v -0.2 0.9 -0.1
v 0.2 0.9 -0.1
v 0.4 0.9 -0.1
v -0.2 1 0
v 0 1 0
v 0.2 1 0
v -0.2 1 -0.1
v 0 1 -0.1
v 0.2 1 -0.1

# faces
f 3/5/1 2/5/1 1/5/1
f 4/5/1 2/5/1 3/5/1
f 5/6/1 4/6/1 3/6/1
f 6/6/1 4/6/1 5/6/1
f 7/5/1 6/5/1 5/5/1
f 8/5/1 6/5/1 7/5/1
f 11/4/1 10/4/1 9/4/1
f 12/4/1 10/4/1 11/4/1
f 13/7/1 12/7/1 11/7/1
f 14/7/1 12/7/1 13/7/1
f 17/5/1 16/5/1 15/5/1
f 18/5/1 16/5/1 17/5/1
f 21/5/1 20/5/1 19/5/1
f 22/5/1 20/5/1 21/5/1
f 25/5/1 24/5/1 23/5/1
f 26/5/1 24/5/1 25/5/1
f 27/5/2 28/5/2 29/5/2
f 29/5/2 28/5/2 30/5/2
f 31/2/2 32/2/2 33/2/2
f 33/2/2 32/2/2 34/2/2
f 35/5/2 36/5/2 37/5/2
f 37/5/2 36/5/2 38/5/2
f 39/2/2 40/2/2 41/2/2
f 41/2/2 40/2/2 42/2/2
f 41/5/2 42/5/2 43/5/2
f 43/5/2 42/5/2 44/5/2
f 45/5/2 46/5/2 47/5/2
f 47/5/2 46/5/2 48/5/2
f 47/2/2 48/2/2 49/2/2
f 49/2/2 48/2/2 50/2/2
f 49/5/2 50/5/2 51/5/2
f 51/5/2 50/5/2 52/5/2
f 59/5/3 54/5/3 53/5/3
f 60/6/3 55/6/3 54/6/3
f 60/5/3 54/5/3 59/5/3
f 61/6/3 55/6/3 60/6/3
f 62/5/3 56/5/3 55/5/3
f 62/6/3 55/6/3 61/6/3
f 63/5/3 56/5/3 62/5/3
f 65/4/3 58/4/3 57/4/3
f 66/7/3 59/7/3 58/7/3
f 66/4/3 58/4/3 65/4/3
f 67/10/3 60/10/3 59/10/3
f 67/7/3 59/7/3 66/7/3
f 68/9/3 61/9/3 60/9/3
f 68/10/3 60/10/3 67/10/3
f 69/8/3 62/8/3 61/8/3
f 69/9/3 61/9/3 68/9/3
f 70/7/3 63/7/3 62/7/3
f 70/8/3 62/8/3 69/8/3
f 71/5/3 64/5/3 63/5/3
f 71/7/3 63/7/3 70/7/3
f 72/5/3 64/5/3 71/5/3
f 74/6/3 66/6/3 65/6/3
f 75/5/3 67/5/3 66/5/3
f 75/6/3 66/6/3 74/6/3
f 76/9/3 68/9/3 67/9/3
f 76/5/3 67/5/3 75/5/3
f 77/4/3 69/4/3 68/4/3
f 77/9/3 68/9/3 76/9/3
f 78/3/3 70/3/3 69/3/3
f 78/4/3 69/4/3 77/4/3
f 79/5/3 71/5/3 70/5/3
f 79/3/3 70/3/3 78/3/3
f 80/7/3 72/7/3 71/7/3
f 80/5/3 71/5/3 79/5/3
f 81/5/3 64/5/3 72/5/3
f 81/7/3 72/7/3 80/7/3
f 82/5/3 64/5/3 81/5/3
f 84/5/3 74/5/3 73/5/3
f 85/11/3 75/11/3 74/11/3
f 85/5/3 74/5/3 84/5/3
f 86/7/3 76/7/3 75/7/3
f 86/11/3 75/11/3 85/11/3
f 87/1/3 77/1/3 76/1/3
f 87/7/3 76/7/3 86/7/3
f 87/1/3 80/1/3 79/1/3
f 87/1/3 78/1/3 77/1/3
f 87/1/3 79/1/3 78/1/3
f 88/4/3 82/4/3 81/4/3
f 88/1/3 80/1/3 87/1/3
f 88/4/3 81/4/3 80/4/3
f 89/4/3 82/4/3 88/4/3
f 90/5/3 83/5/3 82/5/3
f 90/4/3 82/4/3 89/4/3
f 91/4/3 85/4/3 84/4/3
f 92/7/3 86/7/3 85/7/3
f 92/4/3 85/4/3 91/4/3
f 93/4/3 88/4/3 87/4/3
f 94/4/3 88/4/3 93/4/3
f 95/1/3 89/1/3 88/1/3
f 95/2/3 90/2/3 89/2/3
f 96/5/3 83/5/3 90/5/3
f 96/2/3 90/2/3 95/2/3
f 97/5/3 83/5/3 96/5/3
f 98/7/3 86/7/3 92/7/3
f 98/5/3 92/5/3 91/5/3
f 99/1/3 87/1/3 86/1/3
f 99/7/3 86/7/3 98/7/3
f 100/4/3 93/4/3 87/4/3
f 100/1/3 87/1/3 99/1/3
f 101/1/3 94/1/3 93/1/3
f 101/4/3 93/4/3 100/4/3
f 102/4/3 88/4/3 94/4/3
f 102/1/3 94/1/3 101/1/3
f 103/4/3 88/4/3 102/4/3
f 104/1/3 95/1/3 88/1/3
f 104/4/3 88/4/3 103/4/3
f 105/3/3 96/3/3 95/3/3
f 105/1/3 95/1/3 104/1/3
f 106/2/3 97/2/3 96/2/3
f 106/3/3 96/3/3 105/3/3
f 107/5/3 98/5/3 91/5/3
f 108/6/3 99/6/3 98/6/3
f 108/5/3 98/5/3 107/5/3
f 109/9/3 100/9/3 99/9/3
f 109/6/3 99/6/3 108/6/3
f 110/1/3 101/1/3 100/1/3
f 110/9/3 100/9/3 109/9/3
f 110/1/3 102/1/3 101/1/3
f 111/1/3 102/1/3 110/1/3
f 112/5/3 103/5/3 102/5/3
f 112/1/3 102/1/3 111/1/3
f 113/4/3 104/4/3 103/4/3
f 113/5/3 103/5/3 112/5/3
f 114/3/3 105/3/3 104/3/3
f 114/4/3 104/4/3 113/4/3
f 115/2/3 106/2/3 105/2/3
f 115/3/3 105/3/3 114/3/3
f 116/2/3 97/2/3 106/2/3
f 116/2/3 106/2/3 115/2/3
f 117/2/3 97/2/3 116/2/3
f 118/5/3 109/5/3 108/5/3
f 118/7/3 110/7/3 109/7/3
f 119/8/3 111/8/3 110/8/3
f 119/7/3 110/7/3 118/7/3
f 120/4/3 113/4/3 112/4/3
f 120/8/3 111/8/3 119/8/3
f 120/4/3 112/4/3 111/4/3
f 121/4/3 113/4/3 120/4/3
f 122/3/3 115/3/3 114/3/3
f 122/4/3 113/4/3 121/4/3
f 122/3/3 114/3/3 113/3/3
f 123/3/3 115/3/3 122/3/3
f 124/5/3 116/5/3 115/5/3
f 124/3/3 115/3/3 123/3/3
f 125/5/3 118/5/3 108/5/3
f 125/5/3 119/5/3 118/5/3
f 126/7/3 120/7/3 119/7/3
f 126/5/3 119/5/3 125/5/3
f 127/9/3 121/9/3 120/9/3
f 127/7/3 120/7/3 126/7/3
f 128/2/3 122/2/3 121/2/3
f 128/9/3 121/9/3 127/9/3
f 129/3/3 123/3/3 122/3/3
f 129/2/3 122/2/3 128/2/3
f 130/2/3 124/2/3 123/2/3
f 130/3/3 123/3/3 129/3/3
f 131/5/3 116/5/3 124/5/3
f 131/2/3 124/2/3 130/2/3
f 132/5/3 116/5/3 131/5/3
f 133/5/3 128/5/3 127/5/3
f 133/5/3 127/5/3 126/5/3
f 134/2/3 129/2/3 128/2/3
f 134/5/3 128/5/3 133/5/3
f 135/5/3 130/5/3 129/5/3
f 135/2/3 129/2/3 134/2/3
f 136/5/3 130/5/3 135/5/3
f 137/5/4 138/5/4 143/5/4
f 138/6/4 139/6/4 144/6/4
f 143/5/4 138/5/4 144/5/4
f 144/6/4 139/6/4 145/6/4
f 139/5/4 140/5/4 146/5/4
f 145/6/4 139/6/4 146/6/4
f 146/5/4 140/5/4 147/5/4
f 141/4/4 142/4/4 149/4/4
f 142/7/4 143/7/4 150/7/4
f 149/4/4 142/4/4 150/4/4
f 143/10/4 144/10/4 151/10/4
f 150/7/4 143/7/4 151/7/4
f 144/9/4 145/9/4 152/9/4
f 151/10/4 144/10/4 152/10/4
f 145/8/4 146/8/4 153/8/4
f 152/9/4 145/9/4 153/9/4
f 146/7/4 147/7/4 154/7/4
f 153/8/4 146/8/4 154/8/4
f 147/5/4 148/5/4 155/5/4
f 154/7/4 147/7/4 155/7/4
f 155/5/4 148/5/4 156/5/4
f 149/6/4 150/6/4 158/6/4
f 150/5/4 151/5/4 159/5/4
f 158/6/4 150/6/4 159/6/4
f 151/9/4 152/9/4 160/9/4
f 159/5/4 151/5/4 160/5/4
f 152/4/4 153/4/4 161/4/4
f 160/9/4 152/9/4 161/9/4
f 153/3/4 154/3/4 162/3/4
f 161/4/4 153/4/4 162/4/4
f 154/5/4 155/5/4 163/5/4
f 162/3/4 154/3/4 163/3/4
f 155/7/4 156/7/4 164/7/4
f 163/5/4 155/5/4 164/5/4
f 156/5/4 148/5/4 165/5/4
f 164/7/4 156/7/4 165/7/4
f 165/5/4 148/5/4 166/5/4
f 157/5/4 158/5/4 168/5/4
f 158/11/4 159/11/4 169/11/4
f 168/5/4 158/5/4 169/5/4
f 159/7/4 160/7/4 170/7/4
f 169/11/4 159/11/4 170/11/4
f 160/1/4 161/1/4 171/1/4
f 170/7/4 160/7/4 171/7/4
f 163/1/4 164/1/4 171/1/4
f 161/1/4 162/1/4 171/1/4
f 162/1/4 163/1/4 171/1/4
f 165/4/4 166/4/4 172/4/4
f 171/1/4 164/1/4 172/1/4
f 164/4/4 165/4/4 172/4/4
f 172/4/4 166/4/4 173/4/4
f 166/5/4 167/5/4 174/5/4
f 173/4/4 166/4/4 174/4/4
f 168/4/4 169/4/4 175/4/4
f 169/7/4 170/7/4 176/7/4
f 175/4/4 169/4/4 176/4/4
f 171/4/4 172/4/4 177/4/4
f 177/4/4 172/4/4 178/4/4
f 172/1/4 173/1/4 179/1/4
f 173/2/4 174/2/4 179/2/4
f 174/5/4 167/5/4 180/5/4
f 179/2/4 174/2/4 180/2/4
f 180/5/4 167/5/4 181/5/4
f 176/7/4 170/7/4 182/7/4
f 175/5/4 176/5/4 182/5/4
f 170/1/4 171/1/4 183/1/4
f 182/7/4 170/7/4 183/7/4
f 171/4/4 177/4/4 184/4/4
f 183/1/4 171/1/4 184/1/4
f 177/1/4 178/1/4 185/1/4
f 184/4/4 177/4/4 185/4/4
f 178/4/4 172/4/4 186/4/4
f 185/1/4 178/1/4 186/1/4
f 186/4/4 172/4/4 187/4/4
f 172/1/4 179/1/4 188/1/4
f 187/4/4 172/4/4 188/4/4
f 179/3/4 180/3/4 189/3/4
f 188/1/4 179/1/4 189/1/4
f 180/2/4 181/2/4 190/2/4
f 189/3/4 180/3/4 190/3/4
f 175/5/4 182/5/4 191/5/4
f 182/6/4 183/6/4 192/6/4
f 191/5/4 182/5/4 192/5/4
f 183/9/4 184/9/4 193/9/4
f 192/6/4 183/6/4 193/6/4
f 184/1/4 185/1/4 194/1/4
f 193/9/4 184/9/4 194/9/4
f 185/1/4 186/1/4 194/1/4
f 194/1/4 186/1/4 195/1/4
f 186/5/4 187/5/4 196/5/4
f 195/1/4 186/1/4 196/1/4
f 187/4/4 188/4/4 197/4/4
f 196/5/4 187/5/4 197/5/4
f 188/3/4 189/3/4 198/3/4
f 197/4/4 188/4/4 198/4/4
f 189/2/4 190/2/4 199/2/4
f 198/3/4 189/3/4 199/3/4
f 190/2/4 181/2/4 200/2/4
f 199/2/4 190/2/4 200/2/4
f 200/2/4 181/2/4 201/2/4
f 192/5/4 193/5/4 202/5/4
f 193/7/4 194/7/4 202/7/4
f 194/8/4 195/8/4 203/8/4
f 202/7/4 194/7/4 203/7/4
f 196/4/4 197/4/4 204/4/4
f 203/8/4 195/8/4 204/8/4
f 195/4/4 196/4/4 204/4/4
f 204/4/4 197/4/4 205/4/4
f 198/3/4 199/3/4 206/3/4
f 205/4/4 197/4/4 206/4/4
f 197/3/4 198/3/4 206/3/4
f 206/3/4 199/3/4 207/3/4
f 199/5/4 200/5/4 208/5/4
f 207/3/4 199/3/4 208/3/4
f 192/5/4 202/5/4 209/5/4
f 202/5/4 203/5/4 209/5/4
f 203/7/4 204/7/4 210/7/4
f 209/5/4 203/5/4 210/5/4
f 204/9/4 205/9/4 211/9/4
f 210/7/4 204/7/4 211/7/4
f 205/2/4 206/2/4 212/2/4
f 211/9/4 205/9/4 212/9/4
f 206/3/4 207/3/4 213/3/4
f 212/2/4 206/2/4 213/2/4
f 207/2/4 208/2/4 214/2/4
f 213/3/4 207/3/4 214/3/4
f 208/5/4 200/5/4 215/5/4
f 214/2/4 208/2/4 215/2/4
f 215/5/4 200/5/4 216/5/4
f 211/5/4 212/5/4 217/5/4
f 210/5/4 211/5/4 217/5/4
f 212/2/4 213/2/4 218/2/4
f 217/5/4 212/5/4 218/5/4
f 213/5/4 214/5/4 219/5/4
f 218/2/4 213/2/4 219/2/4
f 219/5/4 214/5/4 220/5/4
f 225/5/5 222/5/5 221/5/5
f 226/4/5 223/4/5 222/4/5
f 226/5/5 222/5/5 225/5/5
f 227/5/5 224/5/5 223/5/5
f 227/4/5 223/4/5 226/4/5
f 228/5/5 224/5/5 227/5/5
f 234/4/5 230/4/5 229/4/5
f 235/6/5 231/6/5 230/6/5
f 235/4/5 230/4/5 234/4/5
f 236/6/5 231/6/5 235/6/5
f 237/5/5 233/5/5 232/5/5
f 238/5/5 233/5/5 237/5/5
f 243/5/5 240/5/5 239/5/5
f 244/5/5 240/5/5 243/5/5
f 245/5/5 242/5/5 241/5/5
f 246/5/5 242/5/5 245/5/5
f 247/5/6 248/5/6 251/5/6
f 251/5/6 248/5/6 252/5/6
f 249/5/6 250/5/6 253/5/6
f 253/5/6 250/5/6 254/5/6
f 255/5/6 256/5/6 259/5/6
f 259/5/6 256/5/6 260/5/6
f 257/5/6 258/5/6 261/5/6
f 261/5/6 258/5/6 262/5/6
f 263/5/6 264/5/6 266/5/6
f 264/2/6 265/2/6 267/2/6
f 266/5/6 264/5/6 267/5/6
f 267/2/6 265/2/6 268/2/6
